HIERARCHY
ROOT hip
{
  OFFSET 0 0 0
  CHANNELS 6 Xposition Yposition Zposition Zrotation Yrotation Xrotation
  JOINT abdomen
  {
    OFFSET 0 20.6881 -0.73152
    CHANNELS 3 Zrotation Xrotation Yrotation
    JOINT chest
    {
      OFFSET 0 11.7043 -0.48768
      CHANNELS 3 Zrotation Xrotation Yrotation
      JOINT neck
      {
        OFFSET 0 22.1894 -2.19456
        CHANNELS 3 Zrotation Xrotation Yrotation
        JOINT head
        {
          OFFSET -0.24384 7.07133 1.2192
          CHANNELS 3 Zrotation Xrotation Yrotation
          JOINT leftEye
          {
            OFFSET 4.14528 8.04674 8.04672
            CHANNELS 3 Zrotation Xrotation Yrotation
            End Site
            {
              OFFSET 1 0 0
            }
          }
          JOINT rightEye
          {
            OFFSET -3.6576 8.04674 8.04672
            CHANNELS 3 Zrotation Xrotation Yrotation
            End Site
            {
              OFFSET 1 0 0
            }
          }
        }
      }
      JOINT rCollar
      {
        OFFSET -2.68224 19.2634 -4.8768
        CHANNELS 3 Zrotation Xrotation Yrotation
        JOINT rShldr
        {
          OFFSET -8.77824 -1.95073 1.46304
          CHANNELS 3 Zrotation Xrotation Yrotation
          JOINT rForeArm
          {
            OFFSET -28.1742 -1.7115 0.48768
            CHANNELS 3 Zrotation Xrotation Yrotation
            JOINT rHand
            {
              OFFSET -22.5879 0.773209 7.07136
              CHANNELS 3 Zrotation Xrotation Yrotation
              JOINT rThumb1
              {
                OFFSET -1.2192 -0.487915 3.41376
                CHANNELS 3 Zrotation Xrotation Yrotation
                JOINT rThumb2
                {
                  OFFSET -3.37035 -0.52449 3.41376
                  CHANNELS 3 Zrotation Xrotation Yrotation
                  End Site
                  {
                    OFFSET -1.78271 -1.18214 1.43049
                  }
                }
              }
              JOINT rIndex1
              {
                OFFSET -7.75947 0.938293 5.60832
                CHANNELS 3 Zrotation Xrotation Yrotation
                JOINT rIndex2
                {
                  OFFSET -2.54057 -0.884171 1.56538
                  CHANNELS 3 Zrotation Xrotation Yrotation
                  End Site
                  {
                    OFFSET -1.62519 -0.234802 1.16502
                  }
                }
              }
              JOINT rMid1
              {
                OFFSET -8.24714 1.18213 3.41376
                CHANNELS 3 Zrotation Xrotation Yrotation
                JOINT rMid2
                {
                  OFFSET -3.10165 -0.590103 1.0647
                  CHANNELS 3 Zrotation Xrotation Yrotation
                  End Site
                  {
                    OFFSET -2.48547 -0.328903 0.83742
                  }
                }
              }
              JOINT rRing1
              {
                OFFSET -8.82822 0.546677 1.51678
                CHANNELS 3 Zrotation Xrotation Yrotation
                JOINT rRing2
                {
                  OFFSET -2.60934 -0.819778 -0.0198488
                  CHANNELS 3 Zrotation Xrotation Yrotation
                  End Site
                  {
                    OFFSET -2.33842 -0.294052 0.168128
                  }
                }
              }
              JOINT rPinky1
              {
                OFFSET -8.27202 -0.0477905 -0.4584
                CHANNELS 3 Zrotation Xrotation Yrotation
                JOINT rPinky2
                {
                  OFFSET -1.82734 -0.647385 -0.700984
                  CHANNELS 3 Zrotation Xrotation Yrotation
                  End Site
                  {
                    OFFSET -1.69225 -0.51767 -0.607171
                  }
                }
              }
            }
          }
        }
      }
      JOINT lCollar
      {
        OFFSET 2.68224 19.2634 -4.8768
        CHANNELS 3 Zrotation Xrotation Yrotation
        JOINT lShldr
        {
          OFFSET 8.77824 -1.95073 1.46304
          CHANNELS 3 Zrotation Xrotation Yrotation
          JOINT lForeArm
          {
            OFFSET 28.1742 -1.7115 0.48768
            CHANNELS 3 Zrotation Xrotation Yrotation
            JOINT lHand
            {
              OFFSET 22.5879 0.773209 7.07136
              CHANNELS 3 Zrotation Xrotation Yrotation
              JOINT lThumb1
              {
                OFFSET 1.2192 -0.487915 3.41376
                CHANNELS 3 Zrotation Xrotation Yrotation
                JOINT lThumb2
                {
                  OFFSET 3.37035 -0.52449 3.41376
                  CHANNELS 3 Zrotation Xrotation Yrotation
                  End Site
                  {
                    OFFSET 1.78271 -1.18214 1.43049
                  }
                }
              }
              JOINT lIndex1
              {
                OFFSET 7.75947 0.938293 5.60832
                CHANNELS 3 Zrotation Xrotation Yrotation
                JOINT lIndex2
                {
                  OFFSET 2.54057 -0.884171 1.56538
                  CHANNELS 3 Zrotation Xrotation Yrotation
                  End Site
                  {
                    OFFSET 1.62519 -0.234802 1.16502
                  }
                }
              }
              JOINT lMid1
              {
                OFFSET 8.24714 1.18213 3.41376
                CHANNELS 3 Zrotation Xrotation Yrotation
                JOINT lMid2
                {
                  OFFSET 3.10165 -0.590103 1.0647
                  CHANNELS 3 Zrotation Xrotation Yrotation
                  End Site
                  {
                    OFFSET 2.48547 -0.328903 0.83742
                  }
                }
              }
              JOINT lRing1
              {
                OFFSET 8.82822 0.546677 1.51678
                CHANNELS 3 Zrotation Xrotation Yrotation
                JOINT lRing2
                {
                  OFFSET 2.60934 -0.819778 -0.0198488
                  CHANNELS 3 Zrotation Xrotation Yrotation
                  End Site
                  {
                    OFFSET 2.33842 -0.294052 0.168128
                  }
                }
              }
              JOINT lPinky1
              {
                OFFSET 8.27202 -0.0477905 -0.4584
                CHANNELS 3 Zrotation Xrotation Yrotation
                JOINT lPinky2
                {
                  OFFSET 1.82734 -0.647385 -0.700984
                  CHANNELS 3 Zrotation Xrotation Yrotation
                  End Site
                  {
                    OFFSET 1.69225 -0.51767 -0.607171
                  }
                }
              }
            }
          }
        }
      }
    }
  }
  JOINT rButtock
  {
    OFFSET -8.77824 4.35084 1.2192
    CHANNELS 3 Zrotation Xrotation Yrotation
    JOINT rThigh
    {
      OFFSET 0 -1.70687 -2.19456
      CHANNELS 3 Zrotation Xrotation Yrotation
      JOINT rShin
      {
        OFFSET 0 -36.8199 0.73152
        CHANNELS 3 Zrotation Xrotation Yrotation
        JOINT rFoot
        {
          OFFSET 0.73152 -45.1104 -5.12064
          CHANNELS 3 Zrotation Xrotation Yrotation
          End Site
          {
            OFFSET -1.1221 -3.69964 12.103
          }
        }
      }
    }
  }
  JOINT lButtock
  {
    OFFSET 8.77824 4.35084 1.2192
    CHANNELS 3 Zrotation Xrotation Yrotation
    JOINT lThigh
    {
      OFFSET 0 -1.70687 -2.19456
      CHANNELS 3 Zrotation Xrotation Yrotation
      JOINT lShin
      {
        OFFSET 0 -36.8199 0.73152
        CHANNELS 3 Zrotation Xrotation Yrotation
        JOINT lFoot
        {
          OFFSET -0.73152 -45.1104 -5.12064
          CHANNELS 3 Zrotation Xrotation Yrotation
          End Site
          {
            OFFSET 1.1221 -3.69964 12.103
          }
        }
      }
    }
  }
}
MOTION
Frames:	4
Frame Time:	0.03333
-12.531763594597578 65.13025164604187 40.79704862087965 4.62802791595459 25.840232849121094 2.916393280029297 -11.79395866394043 10.84099292755127 3.6784818172454834 3.8075690269470215 -8.894401550292969 1.0096418857574463 -8.81985092163086 15.916349411010742 -10.989343643188477 11.100810050964355 -23.461814880371094 -19.75468635559082 0.23958194255828857 0.07493383437395096 -0.1300821155309677 -0.016333680599927902 -0.0935852974653244 0.3993973731994629 0.21899348497390747 -0.27547937631607056 0.4340236485004425 37.35309600830078 24.59041976928711 26.053489685058594 -25.841543197631836 -21.92827033996582 54.3045654296875 -0.018292972818017006 6.590304374694824 1.2162740230560303 0.0505698025226593 0.2945084869861603 -0.19570299983024597 -0.07351629436016083 -0.019512495025992393 0.4147885739803314 -0.33045196533203125 0.6419888734817505 0.13144877552986145 7.767079830169678 5.698158264160156 0.5355546474456787 0.16734276711940765 0.05281142145395279 -0.3755844533443451 3.1167168617248535 1.1748812198638916 0.6725361943244934 -0.628446638584137 0.05078116059303284 0.01560012623667717 10.182575225830078 0.7601140737533569 -0.21731121838092804 -0.268169641494751 0.14408573508262634 0.2238149344921112 2.367361307144165 -0.8323200345039368 -0.08268436789512634 0.774327278137207 -0.1682938188314438 -0.3215137720108032 -92.2490005493164 63.51805114746094 20.388208389282227 28.462434768676758 -40.96416091918945 -84.47540283203125 1.134200096130371 -40.68215560913086 5.8911309242248535 -0.03702991083264351 -0.17425000667572021 -0.060017142444849014 -0.13406768441200256 -0.4930221736431122 0.1279362440109253 0.013880038633942604 0.29799655079841614 -0.5036332011222839 -7.450849533081055 5.5343241691589355 -0.5492550730705261 0.49589839577674866 -0.2150285691022873 0.07907754927873611 -2.893214225769043 1.4019253253936768 -0.1323869377374649 0.06916898488998413 0.36269474029541016 -0.12634173035621643 -10.162175178527832 1.016809105873108 0.7135061621665955 0.02594265341758728 0.0035437329206615686 0.24998870491981506 -2.018099308013916 -0.6709713935852051 0.3132573068141937 0.6457810401916504 0.2529178261756897 -0.23878388106822968 -46.2055549621582 -57.85663604736328 -41.656864166259766 -1.03050696849823 69.88121795654297 1.1541036367416382 1.500072717666626 -3.3225584030151367 13.738171577453613 0.2088499367237091 0.03858976066112518 -0.29850488901138306 11.726656913757324 7.9247727394104 2.835674524307251 0.12729769945144653 37.174049377441406 -2.206066370010376 16.437257766723633 -18.175048828125 37.7108268737793
-12.19451678916812 65.02909064292908 41.45738836377859 4.611227989196777 25.83107566833496 2.883938789367676 -11.908945083618164 10.851693153381348 3.7224106788635254 3.858853816986084 -8.855528831481934 1.033909559249878 -8.883370399475098 15.99813461303711 -11.138389587402344 11.196463584899902 -23.458303451538086 -20.07476234436035 0.23000039160251617 0.08008749037981033 -0.14280787110328674 -0.011272972449660301 -0.12832580506801605 0.4244576692581177 0.24840283393859863 -0.27419424057006836 0.44144633412361145 37.25004196166992 24.68691062927246 26.239612579345703 -25.795732498168945 -21.782270431518555 54.099853515625 -0.03359005227684975 6.562831401824951 1.1890935897827148 0.03152501955628395 0.28243833780288696 -0.20944835245609283 -0.12464330345392227 -0.016416780650615692 0.4181869626045227 -0.32242584228515625 0.6520981788635254 0.1228017657995224 7.755972385406494 5.684101104736328 0.5292622447013855 0.19691041111946106 0.03919416666030884 -0.35230952501296997 3.095996379852295 1.1903516054153442 0.6780829429626465 -0.5989174246788025 0.07066550850868225 0.013768453150987625 10.202605247497559 0.7692211270332336 -0.197531595826149 -0.25757890939712524 0.12785854935646057 0.2278943657875061 2.344719648361206 -0.8178930878639221 -0.07612717896699905 0.7969646453857422 -0.17428259551525116 -0.35541993379592896 -92.49888610839844 63.603572845458984 20.78656768798828 28.454830169677734 -40.9792594909668 -84.4802017211914 1.0235097408294678 -40.24300765991211 5.7706451416015625 -0.0016747796908020973 -0.18919789791107178 -0.04023394733667374 -0.14198100566864014 -0.4597902297973633 0.125961035490036 -0.010353589430451393 0.2989514470100403 -0.5093420147895813 -7.463568210601807 5.5455474853515625 -0.5219255089759827 0.5240680575370789 -0.24726678431034088 0.024351878091692924 -2.9377551078796387 1.4188005924224854 -0.09378086775541306 0.10029458999633789 0.4000113010406494 -0.1598018854856491 -10.128707885742188 1.0108553171157837 0.703087568283081 0.02751946821808815 0.005376201122999191 0.21456898748874664 -2.0422117710113525 -0.6849998235702515 0.32003575563430786 0.6502518057823181 0.23664776980876923 -0.2693091630935669 -46.496490478515625 -57.670562744140625 -41.885276794433594 -1.0379953384399414 70.10359954833984 1.190012812614441 1.5853303670883179 -3.2050936222076416 14.046683311462402 0.22657564282417297 0.021081101149320602 -0.31933334469795227 11.837244033813477 7.999584674835205 2.814115524291992 0.15253785252571106 37.17033004760742 -2.241842746734619 16.5335693359375 -18.39238929748535 37.83061981201172
-11.94935915991664 65.00341296195984 42.08787549287081 4.2816925048828125 25.689151763916016 2.812800645828247 -11.74068832397461 10.943378448486328 3.711066961288452 3.812758684158325 -8.813569068908691 1.008894920349121 -8.841985702514648 15.953676223754883 -11.026545524597168 11.199881553649902 -23.443233489990234 -19.958036422729492 0.22076328098773956 0.0772392600774765 -0.17440670728683472 -0.014222707599401474 -0.14537933468818665 0.4376462996006012 0.27778536081314087 -0.26003873348236084 0.4251583218574524 37.434356689453125 25.282106399536133 25.900310516357422 -25.90571403503418 -22.02549934387207 54.55083084106445 -0.006329728756099939 5.929194450378418 1.0379465818405151 0.03462771326303482 0.26183080673217773 -0.2391117513179779 -0.15469998121261597 -0.0031836729031056166 0.45205092430114746 -0.3013087511062622 0.683079719543457 0.13783292472362518 7.7242560386657715 5.672152519226074 0.5296874642372131 0.21325945854187012 0.041224054992198944 -0.36124613881111145 3.0761868953704834 1.2185137271881104 0.706015408039093 -0.5661736726760864 0.09519284963607788 0.013019708916544914 10.254077911376953 0.7799690961837769 -0.187506303191185 -0.24352166056632996 0.12175030261278152 0.21687830984592438 2.297483205795288 -0.7995260953903198 -0.05264493450522423 0.8153283596038818 -0.1578454077243805 -0.361667662858963 -90.6038589477539 63.85307312011719 18.75325584411621 28.449613571166992 -40.93104934692383 -84.37910461425781 0.9104012846946716 -39.397823333740234 5.555383205413818 0.03981080278754234 -0.18950119614601135 -0.01705452986061573 -0.168947234749794 -0.4204457104206085 0.11190536618232727 -0.048492204397916794 0.3125767707824707 -0.5258870124816895 -7.492705345153809 5.550215721130371 -0.49251440167427063 0.5504274964332581 -0.25172317028045654 0.010936375707387924 -2.9583468437194824 1.4190856218338013 -0.07134467363357544 0.13018633425235748 0.4804289638996124 -0.13779598474502563 -10.092347145080566 1.0196303129196167 0.6999273896217346 0.021994324401021004 -0.022475942969322205 0.16669133305549622 -2.057462692260742 -0.6889466047286987 0.28011250495910645 0.6393837928771973 0.2283269464969635 -0.3092307150363922 -46.23433303833008 -57.376338958740234 -41.595645904541016 -1.0935161113739014 70.27630615234375 1.2674142122268677 1.6099915504455566 -3.260636806488037 13.994561195373535 0.22154025733470917 -0.0118095763027668 -0.3415452837944031 12.164319038391113 7.4664106369018555 2.9381048679351807 0.2121094912290573 37.605308532714844 -2.2642459869384766 16.479494094848633 -18.558813095092773 37.6480827331543
-11.789776291698217 65.02727270126343 42.67804976552725 3.945747137069702 25.634191513061523 2.7497994899749756 -11.516963005065918 11.086028099060059 3.583625555038452 3.739582061767578 -8.775923728942871 0.9509220719337463 -8.742795944213867 15.86495590209961 -10.819185256958008 11.188508987426758 -23.428180694580078 -19.668481826782227 0.2212192863225937 0.07870128750801086 -0.20880670845508575 -0.016162076964974403 -0.16970601677894592 0.43082329630851746 0.30187052488327026 -0.22905361652374268 0.3983786106109619 37.67558288574219 25.79376220703125 25.352014541625977 -26.020549774169922 -22.42376136779785 55.27280044555664 0.01500906515866518 5.280959129333496 0.886884331703186 0.04804767295718193 0.24053244292736053 -0.2730863392353058 -0.17482683062553406 0.019106237217783928 0.4727683663368225 -0.2745112180709839 0.6933712959289551 0.1476529836654663 7.686343669891357 5.661769866943359 0.5290377140045166 0.21920284628868103 0.030832156538963318 -0.35314488410949707 3.042660713195801 1.2484261989593506 0.7191383242607117 -0.5304592251777649 0.11171431839466095 0.012579002417623997 10.298521041870117 0.7716410756111145 -0.17956367135047913 -0.22085663676261902 0.11316926777362823 0.2028185874223709 2.2520532608032227 -0.7784104347229004 -0.011792385950684547 0.8313238024711609 -0.15207773447036743 -0.36788785457611084 -87.5960693359375 64.28166961669922 15.511553764343262 28.43196678161621 -40.87438201904297 -84.30011749267578 0.8708866238594055 -38.80887985229492 5.401259899139404 0.06568115204572678 -0.18653187155723572 -0.00582228135317564 -0.19558174908161163 -0.36199459433555603 0.08671212196350098 -0.08360797166824341 0.3193650543689728 -0.535190224647522 -7.498749732971191 5.540923595428467 -0.4652412533760071 0.5606934428215027 -0.24607355892658234 -0.015172025188803673 -2.9673099517822266 1.4105510711669922 -0.06717793643474579 0.1448524296283722 0.5701854825019836 -0.10160461813211441 -10.054424285888672 1.0099705457687378 0.6828221678733826 0.01984335109591484 -0.04657990112900734 0.12928101420402527 -2.04667067527771 -0.6678497195243835 0.23318128287792206 0.617333173751831 0.21802885830402374 -0.34150925278663635 -46.08821487426758 -57.1522331237793 -41.43727111816406 -1.2080979347229004 70.39488220214844 1.3817230463027954 1.617274522781372 -3.2559585571289062 13.813007354736328 0.20888027548789978 -0.037005580961704254 -0.37504297494888306 12.511900901794434 6.963687896728516 3.0629870891571045 0.24099650979042053 38.134910583496094 -2.257847547531128 16.419002532958984 -18.722707748413086 37.44198989868164
